<?xml version="1.0" standalone="no"?>
<!DOCTYPE svg PUBLIC "-//W3C//DTD SVG 20010904//EN"
 "http://www.w3.org/TR/2001/REC-SVG-20010904/DTD/svg10.dtd">
<svg version="1.0" xmlns="http://www.w3.org/2000/svg"
 width="420.000000pt" height="420.000000pt" viewBox="0 0 420.000000 420.000000"
 preserveAspectRatio="xMidYMid meet">
<metadata>
Created by potrace 1.14, written by Peter Selinger 2001-2017
</metadata>
<g transform="translate(0.000000,420.000000) scale(0.100000,-0.100000)"
fill="#000000" stroke="none">
<path d="M565 4060 c1 -104 -4 -110 -92 -109 -41 1 -77 -1 -80 -4 -3 -4 -6
-80 -7 -171 0 -90 -4 -168 -8 -171 -4 -4 -33 -7 -65 -7 -97 1 -90 13 -90 -170
0 -138 -2 -162 -16 -173 -9 -7 -15 -14 -13 -16 3 -2 -30 -4 -72 -4 l-77 1 1
-1211 c1 -665 2 -1217 3 -1227 1 -13 12 -16 55 -16 29 1 58 -2 65 -6 6 -4 11
-1 11 6 0 7 10 2 23 -11 19 -21 22 -34 21 -97 l-2 -73 32 0 c17 -1 38 -2 46
-2 8 0 20 0 25 2 6 1 22 -1 36 -5 25 -7 26 -11 27 -69 0 -97 1 -109 12 -102 5
3 10 3 10 -2 0 -10 115 -7 131 3 8 4 9 3 5 -4 -4 -7 -2 -12 4 -12 6 0 9 -4 5
-9 -3 -5 -2 -12 2 -14 5 -3 8 -72 7 -154 0 -81 3 -152 7 -158 6 -8 211 -12
302 -6 15 1 17 12 17 80 0 51 4 82 13 88 17 14 318 13 332 -1 6 -6 11 -44 12
-84 0 -40 4 -76 7 -80 4 -4 77 -7 162 -7 131 0 154 2 155 15 1 8 2 45 3 82 0
36 5 70 9 75 5 4 160 8 345 9 274 1 339 -2 347 -13 6 -7 10 -47 9 -88 -1 -48
3 -75 10 -76 60 -6 294 -3 304 4 7 6 12 36 12 82 0 46 5 76 13 82 17 14 318
13 332 -1 7 -6 11 -44 11 -89 -1 -76 -1 -77 24 -78 14 -1 85 -2 159 -3 108 -1
135 2 139 13 3 8 6 83 6 168 0 84 4 153 9 153 4 0 5 5 2 11 -5 7 16 9 64 7 39
-2 71 0 71 4 0 4 6 5 14 2 10 -4 14 12 15 77 1 45 4 86 6 89 8 13 52 17 69 8
10 -6 16 -5 16 1 0 7 8 7 23 2 42 -16 54 1 52 79 -1 59 2 74 17 84 10 7 16 15
14 17 -2 2 28 4 67 4 l72 0 5 53 c3 30 2 56 -2 58 -5 3 -6 10 -2 15 5 9 8 119
3 144 -1 6 0 15 1 20 2 12 2 126 -1 140 -1 6 0 15 1 20 2 12 2 126 -1 140 -1
6 0 15 1 20 2 12 2 126 -1 140 -1 6 -1 14 1 20 1 5 1 110 1 232 l0 223 27 7
c15 3 52 6 82 6 l56 0 -1 156 c0 144 2 158 20 177 17 17 32 20 88 19 43 -1 67
2 68 9 1 15 1 996 0 1018 -1 14 -12 17 -68 16 -90 -1 -103 1 -102 10 1 4 0 9
-1 12 -1 3 -2 39 -3 80 l-2 75 -160 0 -160 0 -3 -81 c-3 -95 -10 -102 -107
-98 l-60 2 1 -156 c1 -87 2 -163 3 -170 0 -7 12 -11 29 -10 15 1 33 -1 40 -6
7 -4 12 -4 12 1 0 4 13 8 29 8 16 0 27 -3 25 -6 -2 -4 3 -9 11 -13 13 -5 15
-43 15 -260 0 -162 -4 -257 -10 -261 -6 -4 -7 -11 -4 -17 4 -6 3 -8 -3 -5 -5
3 -82 7 -171 7 -185 2 -172 -6 -169 104 2 60 0 69 -18 76 -12 4 -23 3 -27 -4
-4 -6 -8 -7 -8 -1 0 6 -23 9 -52 8 -65 -2 -73 8 -72 90 2 68 -10 95 -32 76 -8
-6 -14 -7 -14 -2 0 5 -19 9 -42 8 -71 -3 -77 4 -77 92 0 42 -4 79 -9 82 -6 3
-159 6 -341 6 -291 -1 -331 1 -332 15 0 8 -1 86 -1 172 1 111 -3 158 -11 161
-7 2 -41 4 -77 3 -36 -1 -70 4 -76 9 -8 8 -12 92 -12 264 -1 140 -3 256 -6
258 -2 2 -37 4 -78 4 -89 0 -94 6 -93 101 0 55 -3 68 -16 71 -10 3 -22 0 -28
-6 -6 -6 -11 -7 -11 -1 0 5 -21 9 -48 9 l-47 0 1 -75 c0 -41 -4 -81 -9 -88 -6
-8 -35 -12 -84 -11 -41 1 -76 -1 -79 -4 -3 -3 -5 -39 -5 -81 0 -62 -3 -78 -18
-88 -14 -10 -91 -12 -347 -8 l-329 5 -3 88 c-2 59 -7 87 -15 88 -7 0 -39 0
-72 0 -82 -1 -92 9 -90 89 1 74 -8 95 -35 80 -13 -7 -21 -7 -26 1 -4 8 -9 7
-15 -2 -5 -8 -9 -9 -9 -4 0 6 -15 10 -33 10 l-33 0 1 -65z"/>
</g>
</svg>
